<svg xmlns="http://www.w3.org/2000/svg" version="1.1" xmlns:xlink="http://www.w3.org/1999/xlink" xmlns:svgjs="http://svgjs.dev/svgjs" width="1440" height="560" preserveAspectRatio="none" viewBox="0 0 1440 560"><g mask="url(&quot;#SvgjsMask1020&quot;)" fill="none"><rect width="1440" height="560" x="0" y="0" fill="#0e2a47"></rect><path d="M1169.415,230.667C1206.193,231.824,1240.432,211.096,1258.552,179.071C1276.408,147.512,1275.037,108.479,1256.014,77.61C1237.876,48.178,1203.914,32.175,1169.415,34.426C1138.32,36.455,1115.907,60.733,1100.402,87.762C1084.993,114.623,1076.025,145.866,1089.492,173.751C1104.736,205.317,1134.378,229.565,1169.415,230.667" fill="rgba(28, 83, 142, 0.4)" class="triangle-float3"></path><path d="M436.338,263.655C460.274,263.833,488.422,264.561,500.329,243.796C512.206,223.083,496.725,199.556,485.028,178.74C472.96,157.263,460.973,130.019,436.338,129.915C411.625,129.81,398.873,156.691,386.928,178.325C375.562,198.91,362.196,222.505,373.979,242.854C385.747,263.178,412.854,263.48,436.338,263.655" fill="rgba(28, 83, 142, 0.4)" class="triangle-float2"></path><path d="M105.30537618088414 348.2673170242033L120.69343988052616 457.7590795587553 230.1852024150781 442.37101585911324 214.7971387154361 332.87925332456126z" fill="rgba(28, 83, 142, 0.4)" class="triangle-float2"></path><path d="M1448.699,461.312C1486.121,459.292,1516.957,433.466,1533.806,399.991C1549.006,369.794,1542.988,335.432,1527.073,305.605C1509.936,273.487,1484.977,243.516,1448.699,240.486C1407.359,237.033,1365.287,254.805,1343.809,290.296C1321.64,326.928,1323.653,373.625,1346.039,410.125C1367.466,445.06,1407.776,463.521,1448.699,461.312" fill="rgba(28, 83, 142, 0.4)" class="triangle-float1"></path><path d="M1398.2692564379013 75.00902255623845L1425.7264044608294 171.10904063648675 1487.5049875124178 109.33045758489854z" fill="rgba(28, 83, 142, 0.4)" class="triangle-float1"></path><path d="M572.2495079295577 356.93519394401557L429.6016231523751 281.08796820142777 353.7543974097873 423.73585297861035 496.4022821869699 499.58307872119815z" fill="rgba(28, 83, 142, 0.4)" class="triangle-float2"></path><path d="M433.61725019338803 215.24766717638792L353.40134096365324 206.81663538065573 380.8627478849224 331.35601512312405z" fill="rgba(28, 83, 142, 0.4)" class="triangle-float1"></path><path d="M875.8778756701979 285.14070767507536L965.3030288794181 321.2708148209273 912.0079828160498 195.71555446585518z" fill="rgba(28, 83, 142, 0.4)" class="triangle-float1"></path><path d="M804.98,524.203C840.91,524.127,874.221,503.951,891.072,472.218C906.993,442.235,901.121,406.168,882.853,377.554C866.006,351.166,836.273,338.295,804.98,337.369C771.684,336.384,736.676,344.656,718.692,372.695C699.425,402.734,700.594,441.574,718.255,472.584C736.099,503.916,768.923,524.279,804.98,524.203" fill="rgba(28, 83, 142, 0.4)" class="triangle-float3"></path><path d="M223.3089110953781-78.83642917231684L153.683282362273 57.81156123167658 290.3312727662664 127.4371899647817 359.9569014993715-9.210800439211724z" fill="rgba(28, 83, 142, 0.4)" class="triangle-float1"></path></g><defs><mask id="SvgjsMask1020"><rect width="1440" height="560" fill="#ffffff"></rect></mask><style>
                @keyframes float1 {
                    0%{transform: translate(0, 0)}
                    50%{transform: translate(-10px, 0)}
                    100%{transform: translate(0, 0)}
                }

                .triangle-float1 {
                    animation: float1 5s infinite;
                }

                @keyframes float2 {
                    0%{transform: translate(0, 0)}
                    50%{transform: translate(-5px, -5px)}
                    100%{transform: translate(0, 0)}
                }

                .triangle-float2 {
                    animation: float2 4s infinite;
                }

                @keyframes float3 {
                    0%{transform: translate(0, 0)}
                    50%{transform: translate(0, -10px)}
                    100%{transform: translate(0, 0)}
                }

                .triangle-float3 {
                    animation: float3 6s infinite;
                }
            </style></defs></svg>